<mxfile host="app.diagrams.net" agent="Mozilla/5.0 (Windows NT 10.0; Win64; x64) AppleWebKit/537.36 (KHTML, like Gecko) Chrome/132.0.0.0 Safari/537.36 OPR/117.0.0.0" version="26.2.12">
  <diagram name="Page-1" id="3bLled5xghl7q8-HX9hB">
    <mxGraphModel dx="792" dy="403" grid="1" gridSize="10" guides="1" tooltips="1" connect="1" arrows="1" fold="1" page="1" pageScale="1" pageWidth="827" pageHeight="1169" math="0" shadow="0">
      <root>
        <mxCell id="0" />
        <mxCell id="1" parent="0" />
        <mxCell id="iRTbA7d97PFisk-W469E-1" value="User" style="swimlane;horizontal=0;whiteSpace=wrap;html=1;" vertex="1" parent="1">
          <mxGeometry x="80" y="40" width="880" height="200" as="geometry" />
        </mxCell>
        <mxCell id="iRTbA7d97PFisk-W469E-2" value="System" style="swimlane;horizontal=0;whiteSpace=wrap;html=1;startSize=23;" vertex="1" parent="1">
          <mxGeometry x="80" y="240" width="880" height="240" as="geometry">
            <mxRectangle x="80" y="240" width="40" height="50" as="alternateBounds" />
          </mxGeometry>
        </mxCell>
        <mxCell id="iRTbA7d97PFisk-W469E-3" value="MyWaze" style="swimlane;" vertex="1" parent="1">
          <mxGeometry x="80" y="20" width="880" height="460" as="geometry" />
        </mxCell>
        <mxCell id="iRTbA7d97PFisk-W469E-6" value="" style="edgeStyle=orthogonalEdgeStyle;rounded=0;orthogonalLoop=1;jettySize=auto;html=1;" edge="1" parent="iRTbA7d97PFisk-W469E-3" source="iRTbA7d97PFisk-W469E-4" target="iRTbA7d97PFisk-W469E-5">
          <mxGeometry relative="1" as="geometry" />
        </mxCell>
        <mxCell id="iRTbA7d97PFisk-W469E-4" value="Start" style="ellipse;shape=doubleEllipse;html=1;dashed=0;whiteSpace=wrap;aspect=fixed;" vertex="1" parent="iRTbA7d97PFisk-W469E-3">
          <mxGeometry x="50" y="90" width="60" height="60" as="geometry" />
        </mxCell>
        <mxCell id="iRTbA7d97PFisk-W469E-11" style="edgeStyle=orthogonalEdgeStyle;rounded=0;orthogonalLoop=1;jettySize=auto;html=1;entryX=0.5;entryY=0;entryDx=0;entryDy=0;" edge="1" parent="iRTbA7d97PFisk-W469E-3" source="iRTbA7d97PFisk-W469E-5" target="iRTbA7d97PFisk-W469E-10">
          <mxGeometry relative="1" as="geometry" />
        </mxCell>
        <mxCell id="iRTbA7d97PFisk-W469E-5" value="Fill From" style="rounded=1;whiteSpace=wrap;html=1;" vertex="1" parent="iRTbA7d97PFisk-W469E-3">
          <mxGeometry x="140" y="90" width="120" height="60" as="geometry" />
        </mxCell>
        <mxCell id="iRTbA7d97PFisk-W469E-15" style="edgeStyle=orthogonalEdgeStyle;rounded=0;orthogonalLoop=1;jettySize=auto;html=1;entryX=0.5;entryY=1;entryDx=0;entryDy=0;" edge="1" parent="iRTbA7d97PFisk-W469E-3" source="iRTbA7d97PFisk-W469E-27" target="iRTbA7d97PFisk-W469E-13">
          <mxGeometry relative="1" as="geometry">
            <mxPoint x="334" y="270" as="sourcePoint" />
          </mxGeometry>
        </mxCell>
        <mxCell id="iRTbA7d97PFisk-W469E-29" value="" style="edgeStyle=orthogonalEdgeStyle;rounded=0;orthogonalLoop=1;jettySize=auto;html=1;" edge="1" parent="iRTbA7d97PFisk-W469E-3" source="iRTbA7d97PFisk-W469E-10" target="iRTbA7d97PFisk-W469E-27">
          <mxGeometry relative="1" as="geometry" />
        </mxCell>
        <mxCell id="iRTbA7d97PFisk-W469E-10" value="Validate Data" style="rounded=1;whiteSpace=wrap;html=1;" vertex="1" parent="iRTbA7d97PFisk-W469E-3">
          <mxGeometry x="140" y="270" width="120" height="60" as="geometry" />
        </mxCell>
        <mxCell id="iRTbA7d97PFisk-W469E-16" style="edgeStyle=orthogonalEdgeStyle;rounded=0;orthogonalLoop=1;jettySize=auto;html=1;exitX=0.155;exitY=1.043;exitDx=0;exitDy=0;exitPerimeter=0;entryX=0.75;entryY=0;entryDx=0;entryDy=0;" edge="1" parent="iRTbA7d97PFisk-W469E-3" source="iRTbA7d97PFisk-W469E-13" target="iRTbA7d97PFisk-W469E-10">
          <mxGeometry relative="1" as="geometry">
            <mxPoint x="260" y="260" as="targetPoint" />
            <Array as="points">
              <mxPoint x="293" y="210" />
              <mxPoint x="230" y="210" />
            </Array>
          </mxGeometry>
        </mxCell>
        <mxCell id="iRTbA7d97PFisk-W469E-13" value="Correct Data" style="rounded=1;whiteSpace=wrap;html=1;" vertex="1" parent="iRTbA7d97PFisk-W469E-3">
          <mxGeometry x="274" y="90" width="120" height="60" as="geometry" />
        </mxCell>
        <mxCell id="iRTbA7d97PFisk-W469E-20" value="Yes" style="text;html=1;align=center;verticalAlign=middle;resizable=0;points=[];autosize=1;strokeColor=none;fillColor=none;" vertex="1" parent="iRTbA7d97PFisk-W469E-3">
          <mxGeometry x="360" y="270" width="40" height="30" as="geometry" />
        </mxCell>
        <mxCell id="iRTbA7d97PFisk-W469E-17" value="No" style="text;html=1;align=center;verticalAlign=middle;resizable=0;points=[];autosize=1;strokeColor=none;fillColor=none;" vertex="1" parent="iRTbA7d97PFisk-W469E-3">
          <mxGeometry x="324" y="240" width="40" height="30" as="geometry" />
        </mxCell>
        <mxCell id="iRTbA7d97PFisk-W469E-33" value="" style="edgeStyle=orthogonalEdgeStyle;rounded=0;orthogonalLoop=1;jettySize=auto;html=1;" edge="1" parent="iRTbA7d97PFisk-W469E-3" source="iRTbA7d97PFisk-W469E-23" target="iRTbA7d97PFisk-W469E-31">
          <mxGeometry relative="1" as="geometry" />
        </mxCell>
        <mxCell id="iRTbA7d97PFisk-W469E-23" value="Insert Data into&lt;div&gt;DB&lt;/div&gt;" style="rounded=1;whiteSpace=wrap;html=1;" vertex="1" parent="iRTbA7d97PFisk-W469E-3">
          <mxGeometry x="400" y="270" width="120" height="60" as="geometry" />
        </mxCell>
        <mxCell id="iRTbA7d97PFisk-W469E-25" value="" style="edgeStyle=orthogonalEdgeStyle;rounded=0;orthogonalLoop=1;jettySize=auto;html=1;entryX=0.083;entryY=1;entryDx=0;entryDy=0;entryPerimeter=0;exitX=0;exitY=0.3;exitDx=0;exitDy=0;dashed=1;endArrow=none;startFill=0;" edge="1" parent="iRTbA7d97PFisk-W469E-3" source="iRTbA7d97PFisk-W469E-24" target="iRTbA7d97PFisk-W469E-23">
          <mxGeometry relative="1" as="geometry">
            <mxPoint x="410" y="380" as="sourcePoint" />
          </mxGeometry>
        </mxCell>
        <mxCell id="iRTbA7d97PFisk-W469E-24" value="" style="shape=datastore;whiteSpace=wrap;html=1;" vertex="1" parent="iRTbA7d97PFisk-W469E-3">
          <mxGeometry x="435" y="370" width="50" height="60" as="geometry" />
        </mxCell>
        <mxCell id="iRTbA7d97PFisk-W469E-26" value="" style="edgeStyle=orthogonalEdgeStyle;rounded=0;orthogonalLoop=1;jettySize=auto;html=1;entryX=0.083;entryY=1;entryDx=0;entryDy=0;entryPerimeter=0;exitX=1;exitY=0.3;exitDx=0;exitDy=0;dashed=1;endArrow=none;startFill=0;" edge="1" parent="iRTbA7d97PFisk-W469E-3" source="iRTbA7d97PFisk-W469E-24">
          <mxGeometry relative="1" as="geometry">
            <mxPoint x="530" y="378" as="sourcePoint" />
            <mxPoint x="510" y="330" as="targetPoint" />
          </mxGeometry>
        </mxCell>
        <mxCell id="iRTbA7d97PFisk-W469E-30" value="" style="edgeStyle=orthogonalEdgeStyle;rounded=0;orthogonalLoop=1;jettySize=auto;html=1;" edge="1" parent="iRTbA7d97PFisk-W469E-3" source="iRTbA7d97PFisk-W469E-27" target="iRTbA7d97PFisk-W469E-23">
          <mxGeometry relative="1" as="geometry" />
        </mxCell>
        <mxCell id="iRTbA7d97PFisk-W469E-27" value="" style="points=[[0.25,0.25,0],[0.5,0,0],[0.75,0.25,0],[1,0.5,0],[0.75,0.75,0],[0.5,1,0],[0.25,0.75,0],[0,0.5,0]];shape=mxgraph.bpmn.gateway2;html=1;verticalLabelPosition=bottom;labelBackgroundColor=#ffffff;verticalAlign=top;align=center;perimeter=rhombusPerimeter;outlineConnect=0;outline=none;symbol=none;gwType=exclusive;" vertex="1" parent="iRTbA7d97PFisk-W469E-3">
          <mxGeometry x="308.5" y="275" width="50" height="50" as="geometry" />
        </mxCell>
        <mxCell id="iRTbA7d97PFisk-W469E-36" style="edgeStyle=orthogonalEdgeStyle;rounded=0;orthogonalLoop=1;jettySize=auto;html=1;" edge="1" parent="iRTbA7d97PFisk-W469E-3" source="iRTbA7d97PFisk-W469E-31" target="iRTbA7d97PFisk-W469E-35">
          <mxGeometry relative="1" as="geometry" />
        </mxCell>
        <mxCell id="iRTbA7d97PFisk-W469E-31" value="" style="points=[[0.25,0.25,0],[0.5,0,0],[0.75,0.25,0],[1,0.5,0],[0.75,0.75,0],[0.5,1,0],[0.25,0.75,0],[0,0.5,0]];shape=mxgraph.bpmn.gateway2;html=1;verticalLabelPosition=bottom;labelBackgroundColor=#ffffff;verticalAlign=top;align=center;perimeter=rhombusPerimeter;outlineConnect=0;outline=standard;symbol=message;" vertex="1" parent="iRTbA7d97PFisk-W469E-3">
          <mxGeometry x="560" y="275" width="50" height="50" as="geometry" />
        </mxCell>
        <mxCell id="iRTbA7d97PFisk-W469E-34" value="Send verify&lt;div&gt;email&lt;/div&gt;" style="text;html=1;align=center;verticalAlign=middle;resizable=0;points=[];autosize=1;strokeColor=none;fillColor=none;" vertex="1" parent="iRTbA7d97PFisk-W469E-3">
          <mxGeometry x="545" y="325" width="80" height="40" as="geometry" />
        </mxCell>
        <mxCell id="iRTbA7d97PFisk-W469E-38" value="" style="edgeStyle=orthogonalEdgeStyle;rounded=0;orthogonalLoop=1;jettySize=auto;html=1;" edge="1" parent="iRTbA7d97PFisk-W469E-3" source="iRTbA7d97PFisk-W469E-35" target="iRTbA7d97PFisk-W469E-37">
          <mxGeometry relative="1" as="geometry" />
        </mxCell>
        <mxCell id="iRTbA7d97PFisk-W469E-35" value="Verify email" style="rounded=1;whiteSpace=wrap;html=1;" vertex="1" parent="iRTbA7d97PFisk-W469E-3">
          <mxGeometry x="525" y="90" width="120" height="60" as="geometry" />
        </mxCell>
        <mxCell id="iRTbA7d97PFisk-W469E-40" value="" style="edgeStyle=orthogonalEdgeStyle;rounded=0;orthogonalLoop=1;jettySize=auto;html=1;" edge="1" parent="iRTbA7d97PFisk-W469E-3" source="iRTbA7d97PFisk-W469E-37" target="iRTbA7d97PFisk-W469E-39">
          <mxGeometry relative="1" as="geometry" />
        </mxCell>
        <mxCell id="iRTbA7d97PFisk-W469E-37" value="Open login page" style="rounded=1;whiteSpace=wrap;html=1;" vertex="1" parent="iRTbA7d97PFisk-W469E-3">
          <mxGeometry x="660" y="270" width="120" height="60" as="geometry" />
        </mxCell>
        <mxCell id="iRTbA7d97PFisk-W469E-39" value="End" style="points=[[0.145,0.145,0],[0.5,0,0],[0.855,0.145,0],[1,0.5,0],[0.855,0.855,0],[0.5,1,0],[0.145,0.855,0],[0,0.5,0]];shape=mxgraph.bpmn.event;html=1;verticalLabelPosition=bottom;labelBackgroundColor=#ffffff;verticalAlign=top;align=center;perimeter=ellipsePerimeter;outlineConnect=0;aspect=fixed;outline=end;symbol=terminate2;" vertex="1" parent="iRTbA7d97PFisk-W469E-3">
          <mxGeometry x="810" y="275" width="50" height="50" as="geometry" />
        </mxCell>
        <mxCell id="iRTbA7d97PFisk-W469E-41" value="Valid?" style="text;html=1;align=center;verticalAlign=middle;resizable=0;points=[];autosize=1;strokeColor=none;fillColor=none;" vertex="1" parent="iRTbA7d97PFisk-W469E-3">
          <mxGeometry x="304" y="325" width="60" height="30" as="geometry" />
        </mxCell>
      </root>
    </mxGraphModel>
  </diagram>
</mxfile>
